<mxfile host="app.diagrams.net" modified="2020-08-26T08:34:35.985Z" agent="5.0 (Windows NT 10.0; Win64; x64) AppleWebKit/537.36 (KHTML, like Gecko) Chrome/84.0.4147.135 Safari/537.36" etag="TjAPxRcZIGGUn1kDyzeN" version="13.6.5" type="github">
  <diagram id="4-XFf0C6SKH_D2xYOuUZ" name="Page-1">
    <mxGraphModel dx="1303" dy="647" grid="1" gridSize="10" guides="1" tooltips="1" connect="1" arrows="1" fold="1" page="1" pageScale="1" pageWidth="1169" pageHeight="827" math="0" shadow="0">
      <root>
        <mxCell id="0" />
        <mxCell id="1" parent="0" />
        <mxCell id="OTciEMqC5oXOVYCcZYfU-3" value="Вид сбоку" style="text;html=1;align=center;verticalAlign=middle;resizable=0;points=[];autosize=1;fontSize=24;fontStyle=1" vertex="1" parent="1">
          <mxGeometry width="140" height="30" as="geometry" />
        </mxCell>
        <mxCell id="OTciEMqC5oXOVYCcZYfU-5" value="" style="rounded=0;whiteSpace=wrap;html=1;fontSize=24;" vertex="1" parent="1">
          <mxGeometry x="120" y="80" width="920" height="40" as="geometry" />
        </mxCell>
        <mxCell id="OTciEMqC5oXOVYCcZYfU-6" value="Эластичный пенополиуретан (р = 25кг/м&lt;sup style=&quot;font-size: 12px;&quot;&gt;3&lt;/sup&gt;)" style="whiteSpace=wrap;html=1;shape=partialRectangle;top=0;left=0;bottom=1;right=0;points=[[0,1],[1,1]];fillColor=none;align=center;verticalAlign=bottom;routingCenterY=0.5;snapToPoint=1;recursiveResize=0;autosize=1;treeFolding=1;treeMoving=1;newEdgeStyle={&quot;edgeStyle&quot;:&quot;entityRelationEdgeStyle&quot;,&quot;startArrow&quot;:&quot;none&quot;,&quot;endArrow&quot;:&quot;none&quot;,&quot;segment&quot;:10,&quot;curved&quot;:1};fontSize=12;" vertex="1" parent="1">
          <mxGeometry x="1080" y="130" width="270" height="20" as="geometry" />
        </mxCell>
        <mxCell id="OTciEMqC5oXOVYCcZYfU-7" value="" style="edgeStyle=entityRelationEdgeStyle;startArrow=none;endArrow=none;segment=10;curved=1;fontSize=24;exitX=1;exitY=1;exitDx=0;exitDy=0;" edge="1" target="OTciEMqC5oXOVYCcZYfU-6" parent="1" source="OTciEMqC5oXOVYCcZYfU-5">
          <mxGeometry relative="1" as="geometry">
            <mxPoint x="680" y="80" as="sourcePoint" />
          </mxGeometry>
        </mxCell>
        <mxCell id="OTciEMqC5oXOVYCcZYfU-9" value="" style="endArrow=classic;startArrow=classic;html=1;fontSize=24;" edge="1" parent="1">
          <mxGeometry width="50" height="50" relative="1" as="geometry">
            <mxPoint x="1080" y="120" as="sourcePoint" />
            <mxPoint x="1080" y="80" as="targetPoint" />
          </mxGeometry>
        </mxCell>
        <mxCell id="OTciEMqC5oXOVYCcZYfU-12" value="&lt;font style=&quot;font-size: 12px&quot;&gt;25мм&lt;/font&gt;" style="edgeLabel;html=1;align=center;verticalAlign=middle;resizable=0;points=[];fontSize=24;" vertex="1" connectable="0" parent="OTciEMqC5oXOVYCcZYfU-9">
          <mxGeometry x="0.3667" relative="1" as="geometry">
            <mxPoint x="20" as="offset" />
          </mxGeometry>
        </mxCell>
        <mxCell id="OTciEMqC5oXOVYCcZYfU-10" value="" style="endArrow=none;html=1;fontSize=24;entryX=1;entryY=0;entryDx=0;entryDy=0;dashed=1;" edge="1" parent="1" target="OTciEMqC5oXOVYCcZYfU-5">
          <mxGeometry width="50" height="50" relative="1" as="geometry">
            <mxPoint x="1080" y="80" as="sourcePoint" />
            <mxPoint x="600" y="80" as="targetPoint" />
          </mxGeometry>
        </mxCell>
        <mxCell id="OTciEMqC5oXOVYCcZYfU-11" value="" style="endArrow=none;html=1;fontSize=24;entryX=1;entryY=1;entryDx=0;entryDy=0;dashed=1;" edge="1" parent="1" target="OTciEMqC5oXOVYCcZYfU-5">
          <mxGeometry width="50" height="50" relative="1" as="geometry">
            <mxPoint x="1080" y="120" as="sourcePoint" />
            <mxPoint x="600" y="80" as="targetPoint" />
          </mxGeometry>
        </mxCell>
        <mxCell id="OTciEMqC5oXOVYCcZYfU-13" value="&lt;font style=&quot;font-size: 24px&quot;&gt;1-й слой&lt;/font&gt;" style="text;html=1;align=center;verticalAlign=middle;resizable=0;points=[];autosize=1;fontSize=12;" vertex="1" parent="1">
          <mxGeometry y="90" width="110" height="20" as="geometry" />
        </mxCell>
      </root>
    </mxGraphModel>
  </diagram>
</mxfile>
